# xmcd
# Track frame offsets:
# 150
# 14835
# 29997
# 49127
# 70420
# 82602
# 93217
# 116840
# 129090
# 139907
# 152605
# 164402
# 175115
# 186350
# 194735
# 217755
# 236162
# 252310
# 264460
#
# Disc length: 3620 seconds
# Revision: 0
# Processed by: cddbd v1.4PL0 Copyright (c) Steve Scherf et al.
# Submitted via: VisiTrax 2.9.5.181 - For more info visit www.synapsa.com
#
DISCID=130e2213
DTITLE=Brewer Phillips and Ted Harvey (With J.B. Hutto) - Good Houserockin'
DYEAR=1982
DGENRE=Blues
TTITLE0=In The Evening
TTITLE1=Kitchen Sink Boogie
TTITLE2=Fanny's Blues
TTITLE3=I'm Gonna Find My Baby
TTITLE4=Crazy 'Bout You Baby
TTITLE5=South Side Blues
TTITLE6=No Luck Blues
TTITLE7=Highway Blues
TTITLE8=Hello Pretty Baby
TTITLE9=Ingleside Boogie
TTITLE10=Cotton Sack
TTITLE11=Mama Talk To Your Daughter
TTITLE12=You Don't Have To Go
TTITLE13=Boogie Chillen
TTITLE14=Sweet Home Chicago
TTITLE15=That's All Right
TTITLE16=Kansas City
TTITLE17=Kitchen Sink Boogie
TTITLE18=Lunch Bucket Blues
EXTD=
EXTT0=
EXTT1=
EXTT2=
EXTT3=
EXTT4=
EXTT5=
EXTT6=
EXTT7=
EXTT8=
EXTT9=
EXTT10=
EXTT11=
EXTT12=
EXTT13=
EXTT14=
EXTT15=
EXTT16=
EXTT17=
EXTT18=
PLAYORDER=
